<svg width="25" height="25" viewBox="0 0 25 25" fill="none" xmlns="http://www.w3.org/2000/svg">
<g clip-path="url(#clip0_5303_9213)">
<path d="M12.5106 21.6982C14.9206 21.6982 17.2319 20.7408 18.936 19.0367C20.6401 17.3326 21.5975 15.0213 21.5975 12.6113C21.5975 10.2012 20.6401 7.88994 18.936 6.1858C17.2319 4.48167 14.9206 3.52429 12.5106 3.52429C10.1005 3.52429 7.78922 4.48167 6.08509 6.1858C4.38095 7.88994 3.42358 10.2012 3.42358 12.6113C3.42358 15.0213 4.38095 17.3326 6.08509 19.0367C7.78922 20.7408 10.1005 21.6982 12.5106 21.6982Z" fill="#66E1FF"/>
<path d="M12.511 23.6113C18.5859 23.6113 23.511 18.6862 23.511 12.6113C23.511 6.53646 18.5859 1.61133 12.511 1.61133C6.43612 1.61133 1.51099 6.53646 1.51099 12.6113C1.51099 18.6862 6.43612 23.6113 12.511 23.6113Z" stroke="#191919" stroke-linecap="round" stroke-linejoin="round"/>
<path d="M12.5102 15.9591C13.3981 15.9591 14.2496 15.6064 14.8775 14.9785C15.5053 14.3507 15.858 13.4992 15.858 12.6113C15.858 11.7234 15.5053 10.8718 14.8775 10.244C14.2496 9.61615 13.3981 9.26343 12.5102 9.26343C11.6223 9.26343 10.7708 9.61615 10.1429 10.244C9.51506 10.8718 9.16235 11.7234 9.16235 12.6113C9.16235 13.4992 9.51506 14.3507 10.1429 14.9785C10.7708 15.6064 11.6223 15.9591 12.5102 15.9591Z" stroke="#191919" stroke-linecap="round" stroke-linejoin="round"/>
<path d="M15.8583 18.4107C14.9688 18.9239 13.9733 19.2257 12.9485 19.2927C11.9238 19.3597 10.8974 19.1901 9.94873 18.797C9.00004 18.4039 8.15448 17.7978 7.47745 17.0257C6.80042 16.2536 6.31005 15.3361 6.04429 14.3442C5.77852 13.3522 5.74447 12.3125 5.94477 11.3053C6.14507 10.2981 6.57435 9.35051 7.19942 8.53575C7.82448 7.72099 8.62858 7.06092 9.54951 6.6066C10.4704 6.15227 11.4836 5.91586 12.5105 5.91565C21.5974 5.91565 21.1192 15.9591 17.2931 15.9591C15.8583 15.9591 15.8583 15.0026 15.8583 14.5243V9.74174" stroke="#191919" stroke-linecap="round" stroke-linejoin="round"/>
</g>
<defs>
<clipPath id="clip0_5303_9213">
<rect width="24" height="24" fill="white" transform="translate(0.510986 0.611328)"/>
</clipPath>
</defs>
</svg>
