<svg width="24" height="24" viewBox="0 0 24 24" fill="none" xmlns="http://www.w3.org/2000/svg">
<g clip-path="url(#clip0_5303_9969)">
<path d="M14.3482 16.3047C14.3482 16.0512 14.449 15.8078 14.6283 15.6285C14.8076 15.4491 15.051 15.3483 15.3046 15.3483H22.9563C23.2099 15.3483 23.4532 15.4492 23.6326 15.6285C23.812 15.8077 23.9127 16.0512 23.9127 16.3047V22.0436C23.9127 22.2972 23.8119 22.5406 23.6326 22.7199C23.4533 22.8992 23.2099 23 22.9563 23H15.3046C15.051 23 14.8077 22.8992 14.6283 22.7199C14.4489 22.5406 14.3482 22.2972 14.3482 22.0436V16.3047Z" fill="#FFBC44"/>
<path d="M22.9563 15.3483H15.3047C15.051 15.3483 14.8077 15.4492 14.6283 15.6285C14.4489 15.8077 14.3482 16.0512 14.3482 16.3047V22.0436C14.3482 22.2972 14.449 22.5406 14.6283 22.7199C14.8076 22.8992 15.051 23 15.3047 23H15.5734L23.1801 15.3933C23.1077 15.3691 23.0325 15.354 22.9563 15.3483Z" fill="#FFDDA1"/>
<path d="M6.69575 7.69662C7.3578 7.69662 8.00501 7.50024 8.55559 7.13247C9.10608 6.7646 9.53514 6.24173 9.78852 5.63005C10.0419 5.01837 10.1082 4.34529 9.97905 3.69593C9.84982 3.04658 9.53105 2.45002 9.06284 1.98191C8.59463 1.51371 7.99818 1.19484 7.34882 1.06571C6.69946 0.936576 6.02639 1.00285 5.4147 1.25623C4.80292 1.50961 4.28016 1.93868 3.91229 2.48916C3.54442 3.03965 3.34814 3.68695 3.34814 4.349C3.34814 5.2368 3.70078 6.0883 4.32867 6.71609C4.95645 7.34388 5.80785 7.69662 6.69575 7.69662Z" fill="#FFDDA1" stroke="#191919" stroke-linecap="round" stroke-linejoin="round"/>
<path d="M8.60929 22.9999L9.08745 17.2612H11.4787V13.9136C11.4787 12.6452 10.9748 11.4288 10.0779 10.532C9.18105 9.63512 7.96471 9.13129 6.69635 9.13129C5.42799 9.13129 4.21155 9.63512 3.31477 10.532C2.41789 11.4288 1.91406 12.6452 1.91406 13.9136V17.2612H4.30515L4.78341 22.9999H8.60929Z" fill="#66E1FF" stroke="#191919" stroke-linecap="round" stroke-linejoin="round"/>
<path d="M14.3482 16.3047C14.3482 16.0512 14.449 15.8078 14.6283 15.6285C14.8076 15.4491 15.051 15.3483 15.3046 15.3483H22.9563C23.2099 15.3483 23.4532 15.4492 23.6326 15.6285C23.812 15.8077 23.9127 16.0512 23.9127 16.3047V22.0436C23.9127 22.2972 23.8119 22.5406 23.6326 22.7199C23.4533 22.8992 23.2099 23 22.9563 23H15.3046C15.051 23 14.8077 22.8992 14.6283 22.7199C14.4489 22.5406 14.3482 22.2972 14.3482 22.0436V16.3047Z" stroke="#191919" stroke-linecap="round" stroke-linejoin="round"/>
<path d="M16.7383 15.3483L17.2165 14.3918C17.3208 14.0992 17.5168 13.8481 17.7753 13.6758C18.0338 13.5034 18.3409 13.4191 18.6511 13.4353H19.6077C19.9178 13.4191 20.225 13.5034 20.4835 13.6758C20.742 13.8481 20.938 14.0992 21.0423 14.3918L21.5206 15.3483" stroke="#191919" stroke-linecap="round" stroke-linejoin="round"/>
<path d="M14.3482 19.1741H23.9127" stroke="#191919" stroke-linecap="round" stroke-linejoin="round"/>
<path d="M19.1299 19.1741V20.6088" stroke="#191919" stroke-linecap="round" stroke-linejoin="round"/>
<path d="M6.6958 11.0443V13.9136" stroke="#191919" stroke-linecap="round" stroke-linejoin="round"/>
<path d="M7.81212 4.34899C8.56357 4.34889 9.30731 4.19702 9.99854 3.90225C9.90991 3.21249 9.60725 2.56781 9.13309 2.05891C8.65893 1.55 8.03739 1.20263 7.35553 1.0654C6.67376 0.928168 5.96604 1.00811 5.332 1.29389C4.69797 1.57977 4.16945 2.05715 3.8208 2.65888C4.33898 3.19355 4.95935 3.61862 5.64492 3.90899C6.33059 4.19926 7.0675 4.34889 7.81212 4.34899Z" fill="#C77F67" stroke="#191919" stroke-linecap="round" stroke-linejoin="round"/>
</g>
<defs>
<clipPath id="clip0_5303_9969">
<rect width="24" height="24" fill="white" transform="translate(0.913086)"/>
</clipPath>
</defs>
</svg>
