<svg width="25" height="25" viewBox="0 0 25 25" fill="none" xmlns="http://www.w3.org/2000/svg">
<path d="M12.9793 8.65217C15.0924 8.65217 16.8054 6.93918 16.8054 4.82609C16.8054 2.713 15.0924 1 12.9793 1C10.8662 1 9.1532 2.713 9.1532 4.82609C9.1532 6.93918 10.8662 8.65217 12.9793 8.65217Z" fill="#FFBC44"/>
<path d="M12.9793 3.86964C13.7416 3.86946 14.4866 4.097 15.1187 4.52305C15.7507 4.94912 16.2411 5.55428 16.5271 6.26094C16.7616 5.68018 16.85 5.05073 16.7844 4.42785C16.7188 3.80497 16.5014 3.2077 16.1511 2.68848C15.8009 2.16927 15.3284 1.744 14.7754 1.44998C14.2224 1.15596 13.6056 1.0022 12.9793 1.0022C12.353 1.0022 11.7362 1.15596 11.1833 1.44998C10.6302 1.744 10.1578 2.16927 9.80751 2.68848C9.45723 3.2077 9.23976 3.80497 9.17421 4.42785C9.10866 5.05073 9.19702 5.68018 9.43154 6.26094C9.7174 5.55428 10.2078 4.94912 10.8399 4.52305C11.472 4.097 12.2171 3.86946 12.9793 3.86964Z" fill="#FFDDA1"/>
<path d="M12.9793 8.65217C15.0924 8.65217 16.8054 6.93918 16.8054 4.82609C16.8054 2.713 15.0924 1 12.9793 1C10.8662 1 9.1532 2.713 9.1532 4.82609C9.1532 6.93918 10.8662 8.65217 12.9793 8.65217Z" stroke="#191919" stroke-linecap="round" stroke-linejoin="round"/>
<path d="M12.9794 8.65222V23" stroke="#191919" stroke-linecap="round" stroke-linejoin="round"/>
</svg>
