<svg width="24" height="24" viewBox="0 0 24 24" fill="none" xmlns="http://www.w3.org/2000/svg">
<g clip-path="url(#clip0_5303_7592)">
<path d="M9.60917 5.02631H2.91353C1.85698 5.02631 1.00049 5.88281 1.00049 6.93935V21.2872C1.00049 22.3437 1.85698 23.2002 2.91353 23.2002H9.60917C10.6657 23.2002 11.5222 22.3437 11.5222 21.2872V6.93935C11.5222 5.88281 10.6657 5.02631 9.60917 5.02631Z" fill="white"/>
<path d="M11.5222 8.85242H1.00049V19.3741H11.5222V8.85242Z" fill="#66E1FF"/>
<path d="M11.5222 8.85242H1.00049V19.3741H1.71788L11.5222 9.56981V8.85242Z" fill="#C2F3FF"/>
<path d="M22.9997 8.37409C22.9997 8.75461 22.8485 9.11957 22.5795 9.38864C22.3104 9.65771 21.9454 9.80888 21.5649 9.80888H16.304L13.4345 12.6784V9.80888H10.0866C9.70611 9.80888 9.34116 9.65771 9.07209 9.38864C8.80302 9.11957 8.65186 8.75461 8.65186 8.37409V2.63498C8.65186 2.25446 8.80302 1.88951 9.07209 1.62044C9.34116 1.35136 9.70611 1.2002 10.0866 1.2002H21.5649C21.9454 1.2002 22.3104 1.35136 22.5795 1.62044C22.8485 1.88951 22.9997 2.25446 22.9997 2.63498V8.37409Z" fill="#E3E3E3"/>
<path d="M21.5649 1.2002H10.0866C9.70611 1.2002 9.34116 1.35136 9.07209 1.62044C8.80302 1.88951 8.65186 2.25446 8.65186 2.63498V4.89619C8.65186 4.51567 8.80302 4.15072 9.07209 3.88165C9.34116 3.61258 9.70611 3.46141 10.0866 3.46141H21.5649C21.9454 3.46141 22.3104 3.61258 22.5795 3.88165C22.8485 4.15072 22.9997 4.51567 22.9997 4.89619V2.63498C22.9997 2.25446 22.8485 1.88951 22.5795 1.62044C22.3104 1.35136 21.9454 1.2002 21.5649 1.2002Z" fill="white"/>
<path d="M11.5222 14.5915V21.2872C11.5222 21.7945 11.3207 22.2811 10.9619 22.6399C10.6031 22.9987 10.1165 23.2002 9.60917 23.2002H2.91353C2.40616 23.2002 1.91957 22.9987 1.56081 22.6399C1.20204 22.2811 1.00049 21.7945 1.00049 21.2872V6.93935C1.00049 6.43198 1.20204 5.94539 1.56081 5.58663C1.91957 5.22786 2.40616 5.02631 2.91353 5.02631H6.73961" stroke="#191919" stroke-linecap="round" stroke-linejoin="round"/>
<path d="M6.73961 8.85242H1.00049" stroke="#191919" stroke-linecap="round" stroke-linejoin="round"/>
<path d="M11.5222 19.3742H1.00049" stroke="#191919" stroke-linecap="round" stroke-linejoin="round"/>
<path d="M4.82617 6.93933H6.73921" stroke="#191919" stroke-linecap="round" stroke-linejoin="round"/>
<path d="M22.9997 8.37409C22.9997 8.75461 22.8485 9.11957 22.5795 9.38864C22.3104 9.65771 21.9454 9.80888 21.5649 9.80888H16.304L13.4345 12.6784V9.80888H10.0866C9.70611 9.80888 9.34116 9.65771 9.07209 9.38864C8.80302 9.11957 8.65186 8.75461 8.65186 8.37409V2.63498C8.65186 2.25446 8.80302 1.88951 9.07209 1.62044C9.34116 1.35136 9.70611 1.2002 10.0866 1.2002H21.5649C21.9454 1.2002 22.3104 1.35136 22.5795 1.62044C22.8485 1.88951 22.9997 2.25446 22.9997 2.63498V8.37409Z" stroke="#191919" stroke-linecap="round" stroke-linejoin="round"/>
<path d="M6.26159 21.5263C6.12952 21.5263 6.02246 21.4193 6.02246 21.2872C6.02246 21.1551 6.12952 21.048 6.26159 21.048" stroke="#191919"/>
<path d="M6.26123 21.5263C6.3933 21.5263 6.50036 21.4193 6.50036 21.2872C6.50036 21.1551 6.3933 21.048 6.26123 21.048" stroke="#191919"/>
<path d="M12.7176 5.50457C12.5855 5.50457 12.4785 5.39751 12.4785 5.26544C12.4785 5.13337 12.5855 5.02631 12.7176 5.02631" stroke="#191919"/>
<path d="M12.7178 5.50457C12.8499 5.50457 12.9569 5.39751 12.9569 5.26544C12.9569 5.13337 12.8499 5.02631 12.7178 5.02631" stroke="#191919"/>
<path d="M16.0653 5.50457C15.9332 5.50457 15.8262 5.39751 15.8262 5.26544C15.8262 5.13337 15.9332 5.02631 16.0653 5.02631" stroke="#191919"/>
<path d="M16.0649 5.50457C16.197 5.50457 16.3041 5.39751 16.3041 5.26544C16.3041 5.13337 16.197 5.02631 16.0649 5.02631" stroke="#191919"/>
<path d="M19.4134 5.50457C19.2814 5.50457 19.1743 5.39751 19.1743 5.26544C19.1743 5.13337 19.2814 5.02631 19.4134 5.02631" stroke="#191919"/>
<path d="M19.4131 5.50457C19.5452 5.50457 19.6522 5.39751 19.6522 5.26544C19.6522 5.13337 19.5452 5.02631 19.4131 5.02631" stroke="#191919"/>
</g>
<defs>
<clipPath id="clip0_5303_7592">
<rect width="24" height="24" fill="white" transform="translate(0 0.200195)"/>
</clipPath>
</defs>
</svg>
